# xmcd
#
# Track frame offsets:
#	150
#	12562
#	33900
#	48562
#	63375
#	81750
#	97462
#	112012
#	127361
#	140711
#	159761
#	177836
#
# Disc length: 2760 seconds
#
# Revision: 0
# Processed by: cddbd v1.4PL0 Copyright (c) Steve Scherf et al.
# Submitted via: dBpowerAMP V4.0
#
DISCID=ae0ac60c
DTITLE=Jeannie Kendall - Self Titled
DYEAR=1900
DGENRE=Country
TTITLE0=That's What Your Love Does To Me
TTITLE1=Love Chooses You
TTITLE2=Timeless And True Love (Duet w. Alan Jackson)
TTITLE3=I Wonder Where You Are Tonight
TTITLE4=Old Friends
TTITLE5=Smoky Lonesome
TTITLE6=Just A Memory
TTITLE7=Train Of Thought
TTITLE8=Wishing Well Blues
TTITLE9=The Color Of Her Eyes
TTITLE10=Serious Doubt
TTITLE11=Jack And Lucy
EXTD=
EXTT0=
EXTT1=
EXTT2=
EXTT3=
EXTT4=
EXTT5=
EXTT6=
EXTT7=
EXTT8=
EXTT9=
EXTT10=
EXTT11=
PLAYORDER=
